<?xml version="1.0" standalone="no"?>
<!DOCTYPE svg PUBLIC "-//W3C//DTD SVG 20010904//EN"
 "http://www.w3.org/TR/2001/REC-SVG-20010904/DTD/svg10.dtd">
<svg version="1.0" xmlns="http://www.w3.org/2000/svg"
 width="568.000000pt" height="568.000000pt" viewBox="0 0 568.000000 568.000000"
 preserveAspectRatio="xMidYMid meet">
<metadata>
Created by potrace 1.14, written by Peter Selinger 2001-2017
</metadata>
<g transform="translate(0.000000,568.000000) scale(0.100000,-0.100000)"
fill="#000000" stroke="none">
<path d="M0 2840 l0 -2840 2840 0 2840 0 0 2840 0 2840 -2840 0 -2840 0 0
-2840z m2148 903 l2 -633 690 0 690 0 2 633 3 632 258 3 257 2 0 -1535 0
-1535 -260 0 -260 0 0 685 0 685 -690 0 -690 0 0 -685 0 -685 -260 0 -260 0 0
1535 0 1535 258 -2 257 -3 3 -632z"/>
</g>
</svg>
